<svg width="16" height="16" viewBox="0 0 16 16" fill="none" xmlns="http://www.w3.org/2000/svg">
<path fill-rule="evenodd" clip-rule="evenodd" d="M8.00014 7.52956C7.74024 7.52956 7.52956 7.74024 7.52956 8.00014C7.52956 8.26004 7.74024 8.47073 8.00014 8.47073C8.26004 8.47073 8.47073 8.26004 8.47073 8.00014C8.47073 7.74024 8.26004 7.52956 8.00014 7.52956ZM6.58838 8.00014C6.58838 7.22045 7.22045 6.58838 8.00014 6.58838C8.77984 6.58838 9.41191 7.22045 9.41191 8.00014C9.41191 8.77984 8.77984 9.41191 8.00014 9.41191C7.22045 9.41191 6.58838 8.77984 6.58838 8.00014Z" fill="white"/>
<path fill-rule="evenodd" clip-rule="evenodd" d="M8.00014 0.941176C7.74024 0.941176 7.52956 1.15187 7.52956 1.41176C7.52956 1.67166 7.74024 1.88235 8.00014 1.88235C8.26004 1.88235 8.47073 1.67166 8.47073 1.41176C8.47073 1.15187 8.26004 0.941176 8.00014 0.941176ZM6.58838 1.41176C6.58838 0.632069 7.22045 0 8.00014 0C8.77984 0 9.41191 0.632069 9.41191 1.41176C9.41191 2.19146 8.77984 2.82353 8.00014 2.82353C7.22045 2.82353 6.58838 2.19146 6.58838 1.41176Z" fill="white"/>
<path fill-rule="evenodd" clip-rule="evenodd" d="M8.00014 14.1174C7.74024 14.1174 7.52956 14.3281 7.52956 14.588C7.52956 14.8479 7.74024 15.0586 8.00014 15.0586C8.26004 15.0586 8.47073 14.8479 8.47073 14.588C8.47073 14.3281 8.26004 14.1174 8.00014 14.1174ZM6.58838 14.588C6.58838 13.8083 7.22045 13.1763 8.00014 13.1763C8.77984 13.1763 9.41191 13.8083 9.41191 14.588C9.41191 15.3677 8.77984 15.9998 8.00014 15.9998C7.22045 15.9998 6.58838 15.3677 6.58838 14.588Z" fill="white"/>
</svg>
