<svg width="16" height="16" viewBox="0 0 16 16" fill="none" xmlns="http://www.w3.org/2000/svg">
<g clip-path="url(#clip0_50_3853)">
<path d="M8.53333 0.533333C8.53333 0.238781 8.29455 0 8 0C7.70545 0 7.46667 0.238781 7.46667 0.533333V7.46667H0.533333C0.238781 7.46667 0 7.70545 0 8C0 8.29455 0.238781 8.53333 0.533333 8.53333H7.46667V15.4667C7.46667 15.7612 7.70545 16 8 16C8.29455 16 8.53333 15.7612 8.53333 15.4667V8.53333H15.4667C15.7612 8.53333 16 8.29455 16 8C16 7.70545 15.7612 7.46667 15.4667 7.46667H8.53333V0.533333Z" fill="#F6F7FC"/>
</g>
<defs>
<clipPath id="clip0_50_3853">
<rect width="16" height="16" fill="white"/>
</clipPath>
</defs>
</svg>
